<?xml version="1.0" encoding="UTF-8"?>
<svg xmlns="http://www.w3.org/2000/svg" xmlns:xlink="http://www.w3.org/1999/xlink" viewBox="0 0 64 64" version="1.1" width="64px" height="64px">
<g id="surface1">
<path style=" fill:#FFF7F0;" d="M 34.253906 3.191406 C 49.613281 4.984375 60.609375 18.894531 58.8125 34.253906 C 57.015625 49.613281 43.109375 60.605469 27.75 58.8125 C 12.390625 57.015625 1.394531 43.109375 3.191406 27.75 C 4.988281 12.390625 18.894531 1.394531 34.253906 3.191406 Z "/>
<path style=" fill:#FAEFDE;" d="M 31 53 C 30.132813 53 29.269531 52.949219 28.410156 52.851563 C 16.832031 51.492188 8.324219 41.339844 9.011719 29.703125 C 9.699219 18.066406 19.34375 8.988281 31 9 C 31.867188 9 32.730469 9.050781 33.589844 9.148438 C 45.167969 10.507813 53.675781 20.660156 52.988281 32.296875 C 52.300781 43.933594 42.65625 53.011719 31 53 Z "/>
<path style=" fill:#8D6C9F;" d="M 53.75 13 C 43.808594 0.433594 25.566406 -1.691406 13 8.25 C 0.433594 18.191406 -1.691406 36.433594 8.25 49 C 13.007813 55.042969 19.988281 58.929688 27.628906 59.800781 C 28.769531 59.933594 29.914063 60 31.058594 60 C 42.171875 59.980469 52.296875 53.613281 57.128906 43.609375 C 61.960938 33.601563 60.648438 21.710938 53.75 13 Z M 57.820313 34.121094 C 56.089844 48.933594 42.683594 59.539063 27.871094 57.808594 C 13.058594 56.082031 2.453125 42.671875 4.179688 27.859375 C 5.769531 14.273438 17.269531 4.023438 30.949219 4 C 32.015625 4 33.082031 4.066406 34.140625 4.191406 C 48.949219 5.921875 59.550781 19.332031 57.820313 34.140625 Z "/>
<path style=" fill:#8D6C9F;" d="M 10 29.550781 L 12 29.78125 L 12.121094 29.78125 C 12.671875 29.808594 13.144531 29.386719 13.175781 28.835938 C 13.207031 28.28125 12.78125 27.808594 12.230469 27.78125 L 10.230469 27.550781 C 9.675781 27.488281 9.179688 27.882813 9.113281 28.433594 C 9.050781 28.988281 9.449219 29.488281 10 29.550781 Z "/>
<path style=" fill:#8D6C9F;" d="M 13.191406 33.738281 C 13.109375 33.199219 12.601563 32.824219 12.058594 32.898438 L 10.058594 33.191406 C 9.507813 33.230469 9.089844 33.707031 9.128906 34.261719 C 9.167969 34.8125 9.648438 35.230469 10.199219 35.191406 L 10.351563 35.191406 L 12.351563 34.898438 C 12.617188 34.859375 12.855469 34.714844 13.015625 34.496094 C 13.171875 34.277344 13.234375 34.003906 13.191406 33.738281 Z "/>
<path style=" fill:#8D6C9F;" d="M 15.261719 20.210938 C 15.542969 20.457031 15.941406 20.523438 16.289063 20.382813 C 16.636719 20.242188 16.878906 19.921875 16.914063 19.546875 C 16.945313 19.171875 16.769531 18.808594 16.449219 18.609375 L 14.851563 17.421875 C 14.574219 17.148438 14.164063 17.0625 13.800781 17.195313 C 13.4375 17.332031 13.183594 17.664063 13.152344 18.050781 C 13.121094 18.4375 13.3125 18.804688 13.648438 19 Z "/>
<path style=" fill:#8D6C9F;" d="M 13.199219 37.859375 L 11.359375 38.648438 C 10.851563 38.867188 10.617188 39.457031 10.835938 39.964844 C 11.054688 40.472656 11.640625 40.707031 12.148438 40.488281 L 14 39.699219 C 14.507813 39.480469 14.742188 38.894531 14.523438 38.386719 C 14.308594 37.875 13.71875 37.640625 13.210938 37.859375 Z "/>
<path style=" fill:#8D6C9F;" d="M 11.148438 24 L 13.011719 24.738281 C 13.523438 24.945313 14.105469 24.695313 14.308594 24.179688 C 14.515625 23.667969 14.261719 23.085938 13.75 22.878906 L 11.890625 22.140625 C 11.375 21.9375 10.792969 22.1875 10.589844 22.699219 C 10.386719 23.214844 10.636719 23.796875 11.148438 24 Z "/>
<path style=" fill:#8D6C9F;" d="M 49.46875 19.539063 C 48.996094 19.820313 48.839844 20.433594 49.121094 20.910156 C 49.507813 21.558594 49.863281 22.226563 50.179688 22.910156 C 50.296875 23.277344 50.609375 23.542969 50.988281 23.597656 C 51.367188 23.65625 51.746094 23.488281 51.960938 23.171875 C 52.175781 22.855469 52.191406 22.441406 52 22.109375 C 51.652344 21.347656 51.265625 20.601563 50.839844 19.878906 C 50.554688 19.410156 49.941406 19.257813 49.46875 19.539063 Z "/>
<path style=" fill:#8D6C9F;" d="M 51.519531 26.871094 C 52.34375 30.414063 52.238281 34.109375 51.210938 37.601563 C 51.054688 38.128906 51.359375 38.683594 51.890625 38.839844 C 51.984375 38.851563 52.078125 38.851563 52.171875 38.839844 C 52.628906 38.859375 53.042969 38.5625 53.171875 38.121094 C 54.292969 34.296875 54.410156 30.25 53.511719 26.371094 C 53.386719 25.832031 52.847656 25.496094 52.308594 25.621094 C 51.773438 25.746094 51.4375 26.28125 51.558594 26.820313 Z "/>
<path style=" fill:#ED7899;" d="M 29.808594 22.601563 C 29.085938 23.804688 28.910156 25.257813 29.328125 26.601563 C 29.496094 27.128906 30.058594 27.425781 30.589844 27.261719 C 31.121094 27.09375 31.414063 26.53125 31.25 26 C 31.003906 25.195313 31.109375 24.324219 31.539063 23.601563 C 32.949219 21.148438 37.539063 19.539063 39.148438 19.128906 C 39.6875 18.996094 40.011719 18.449219 39.875 17.914063 C 39.738281 17.378906 39.195313 17.054688 38.660156 17.191406 C 38.390625 17.25 31.929688 18.910156 29.808594 22.601563 Z "/>
<path style=" fill:#ED7899;" d="M 31.539063 33.109375 C 32 33.410156 32.617188 33.28125 32.921875 32.820313 C 33.925781 31.433594 33.796875 29.53125 32.621094 28.289063 C 32.390625 28.007813 32.023438 27.871094 31.664063 27.9375 C 31.304688 28.003906 31.011719 28.257813 30.894531 28.605469 C 30.78125 28.949219 30.863281 29.332031 31.109375 29.601563 C 31.703125 30.160156 31.765625 31.085938 31.25 31.71875 C 31.101563 31.941406 31.050781 32.214844 31.105469 32.476563 C 31.160156 32.738281 31.316406 32.964844 31.539063 33.109375 Z "/>
<path style=" fill:#8D6C9F;" d="M 43.671875 44.109375 C 43.910156 43.429688 43.671875 42.5 42.46875 41.941406 C 41.988281 41.664063 41.371094 41.832031 41.09375 42.316406 C 40.820313 42.796875 40.988281 43.414063 41.46875 43.691406 C 39.46875 45.238281 28.46875 47.589844 17.710938 44.878906 C 17.410156 44.796875 17.117188 44.683594 16.839844 44.539063 C 17.679688 43.871094 20.5 43.191406 21.199219 43.539063 C 21.652344 43.859375 22.277344 43.746094 22.59375 43.296875 C 22.914063 42.84375 22.804688 42.21875 22.351563 41.898438 C 20.910156 40.898438 17.449219 41.828125 16.039063 42.671875 C 14.808594 43.410156 14.628906 44.210938 14.699219 44.761719 C 14.871094 46.089844 16.578125 46.601563 17.191406 46.761719 C 20.789063 47.632813 24.484375 48.066406 28.191406 48.050781 C 36.179688 48.101563 42.929688 46.230469 43.671875 44.109375 Z "/>
<path style=" fill:#8D6C9F;" d="M 21.390625 35.941406 C 20.820313 36.359375 20.578125 37.09375 20.789063 37.769531 C 21.03125 38.53125 21.898438 39.128906 23.179688 39.558594 C 22.757813 39.820313 22.453125 40.238281 22.328125 40.71875 C 22.207031 41.394531 22.492188 42.082031 23.058594 42.46875 C 24.140625 43.351563 26.640625 44 29.589844 44 C 32.128906 44.023438 34.652344 43.539063 37 42.570313 C 37.507813 42.351563 37.742188 41.761719 37.523438 41.253906 C 37.308594 40.746094 36.71875 40.511719 36.210938 40.730469 C 31.328125 42.820313 25.871094 41.941406 24.53125 41.078125 C 24.851563 40.925781 25.183594 40.804688 25.53125 40.71875 C 26.304688 40.5 27.105469 40.378906 27.910156 40.359375 C 27.960938 40.363281 28.011719 40.363281 28.058594 40.359375 L 29.058594 40.359375 C 31.824219 40.363281 34.570313 39.980469 37.230469 39.230469 C 37.761719 39.074219 38.066406 38.519531 37.910156 37.988281 C 37.753906 37.460938 37.199219 37.15625 36.671875 37.308594 C 30.300781 39.179688 24.179688 38.160156 22.871094 37.308594 C 23.261719 37.070313 23.679688 36.878906 24.121094 36.75 C 24.929688 36.496094 25.765625 36.34375 26.609375 36.289063 C 30.472656 36.308594 34.328125 35.875 38.089844 35 C 38.640625 34.859375 38.976563 34.296875 38.835938 33.746094 C 38.695313 33.191406 38.132813 32.859375 37.578125 33 C 34.007813 33.886719 30.339844 34.324219 26.660156 34.300781 L 26.359375 34.300781 C 24.417969 34.328125 22.476563 34.160156 20.570313 33.789063 C 22.164063 33.164063 23.859375 32.828125 25.570313 32.789063 C 26.121094 32.789063 26.570313 32.34375 26.570313 31.789063 C 26.570313 31.238281 26.121094 30.789063 25.570313 30.789063 C 23.234375 30.824219 20.9375 31.378906 18.839844 32.410156 C 17.578125 33.191406 17.839844 34.128906 17.96875 34.410156 C 18.308594 35.140625 19.589844 35.640625 21.390625 35.941406 Z "/>
<path style=" fill:#8D6C9F;" d="M 39.929688 31 C 39.40625 31.183594 39.132813 31.753906 39.316406 32.273438 C 39.496094 32.796875 40.066406 33.070313 40.589844 32.890625 C 41.535156 32.492188 42.621094 32.636719 43.429688 33.269531 C 43.921875 33.652344 44.144531 34.285156 44 34.890625 C 43.679688 36.269531 41.789063 37.578125 38.929688 38.398438 C 38.378906 38.472656 37.992188 38.984375 38.066406 39.535156 C 38.140625 40.085938 38.648438 40.472656 39.199219 40.398438 C 39.289063 40.414063 39.378906 40.414063 39.46875 40.398438 C 44.46875 38.980469 45.648438 36.671875 45.941406 35.398438 C 46.242188 34.105469 45.800781 32.753906 44.800781 31.878906 C 43.460938 30.710938 41.589844 30.375 39.929688 31 Z "/>
<path style=" fill:#ED7899;" d="M 28.550781 31.871094 C 28.996094 32.195313 29.625 32.097656 29.949219 31.648438 C 30.277344 31.203125 30.175781 30.574219 29.730469 30.25 C 26.269531 27.71875 25.230469 25.5 26.351563 23.078125 C 27.410156 21.34375 28.84375 19.863281 30.550781 18.75 C 33.160156 16.75 36.121094 14.46875 34.949219 9.859375 C 34.816406 9.324219 34.269531 9 33.734375 9.136719 C 33.199219 9.269531 32.875 9.8125 33.011719 10.351563 C 33.820313 13.53125 32.21875 14.941406 29.328125 17.160156 C 27.378906 18.441406 25.742188 20.152344 24.550781 22.160156 C 22.21875 27.238281 27 30.71875 28.550781 31.871094 Z "/>
<path style=" fill:#8D6C9F;" d="M 43.71875 45.171875 C 43.171875 45.128906 42.691406 45.542969 42.648438 46.089844 C 42.53125 47.628906 35.78125 49.441406 25.460938 48.78125 C 24.910156 48.746094 24.4375 49.160156 24.398438 49.710938 C 24.367188 50.257813 24.78125 50.734375 25.328125 50.769531 C 25.550781 50.769531 27.21875 50.890625 29.5 50.890625 C 35.089844 50.890625 44.328125 50.28125 44.640625 46.238281 C 44.679688 45.691406 44.269531 45.210938 43.71875 45.171875 Z "/>
</g>
</svg>
