<?xml version="1.0" encoding="iso-8859-1"?>
<!-- Generator: Adobe Illustrator 19.0.0, SVG Export Plug-In . SVG Version: 6.00 Build 0)  -->
<svg version="1.1" id="Layer_1" xmlns="http://www.w3.org/2000/svg" xmlns:xlink="http://www.w3.org/1999/xlink" x="0px" y="0px"
	 viewBox="0 0 512 512" style="enable-background:new 0 0 512 512;" xml:space="preserve">
<path style="fill:#FFFFFF;" d="M256,508C117.048,508,4,394.952,4,256S117.048,4,256,4s252,113.048,252,252S394.952,508,256,508z"/>
<path style="fill:#999999;" d="M256,8c136.744,0,248,111.256,248,248S392.744,504,256,504S8,392.744,8,256S119.256,8,256,8 M256,0
	C114.616,0,0,114.616,0,256s114.616,256,256,256s256-114.616,256-256S397.384,0,256,0L256,0z"/>
<g style="opacity:0.5;">
	<path style="fill:#FFFFFF;" d="M256,483.832C130.376,483.832,28.168,381.624,28.168,256C28.168,130.368,130.376,28.168,256,28.168
		c125.632,0,227.832,102.2,227.832,227.832C483.832,381.624,381.632,483.832,256,483.832z"/>
	<path style="fill:#999999;" d="M256,30.168c124.528,0,225.832,101.312,225.832,225.832S380.528,481.832,256,481.832
		S30.168,380.528,30.168,256S131.472,30.168,256,30.168 M256,26.168C129.064,26.168,26.168,129.064,26.168,256
		S129.064,485.832,256,485.832S485.832,382.936,485.832,256S382.936,26.168,256,26.168L256,26.168z"/>
</g>
<g>
	<path style="fill:#E21B1B;" d="M125.648,302.688h-22.424l22.792-108.808h44.232c7.864,0,14.088,0.928,18.664,2.784
		s8.2,4.928,10.872,9.2c2.672,4.28,4.008,9.392,4.008,15.328c0,5.496-1.064,10.832-3.192,16.032
		c-2.128,5.192-4.736,9.352-7.832,12.472s-6.424,5.488-9.984,7.088c-3.56,1.608-8.36,2.832-14.392,3.68
		c-3.512,0.496-10.096,0.736-19.752,0.736h-14.32L125.648,302.688z M138.04,243.168h6.904c11.824,0,19.712-0.744,23.672-2.224
		s7.08-3.856,9.352-7.128s3.416-6.848,3.416-10.76c0-2.624-0.584-4.776-1.744-6.464c-1.168-1.68-2.8-2.904-4.896-3.672
		c-2.112-0.768-6.8-1.152-14.064-1.152h-16.032L138.04,243.168z"/>
	<path style="fill:#E21B1B;" d="M279.72,254.08h-42.08l-10.168,48.608h-22.408l22.784-108.808h22.344l-8.768,42.008h42.088
		l8.832-42.008h22.336l-22.712,108.808h-22.416L279.72,254.08z"/>
	<path style="fill:#E21B1B;" d="M336.8,302.688h-22.424l22.792-108.808H381.4c7.864,0,14.088,0.928,18.664,2.784
		s8.2,4.928,10.872,9.2c2.672,4.28,4.008,9.392,4.008,15.328c0,5.496-1.064,10.832-3.192,16.032
		c-2.128,5.192-4.736,9.352-7.832,12.472s-6.424,5.488-9.984,7.088c-3.56,1.608-8.36,2.832-14.392,3.68
		c-3.512,0.496-10.096,0.736-19.752,0.736h-14.32L336.8,302.688z M349.192,243.168h6.904c11.824,0,19.712-0.744,23.672-2.224
		s7.08-3.856,9.352-7.128s3.416-6.848,3.416-10.76c0-2.624-0.584-4.776-1.744-6.464c-1.168-1.68-2.8-2.904-4.896-3.672
		c-2.112-0.768-6.8-1.152-14.064-1.152H355.8L349.192,243.168z"/>
</g>
<g>
</g>
<g>
</g>
<g>
</g>
<g>
</g>
<g>
</g>
<g>
</g>
<g>
</g>
<g>
</g>
<g>
</g>
<g>
</g>
<g>
</g>
<g>
</g>
<g>
</g>
<g>
</g>
<g>
</g>
</svg>
