<?xml version="1.0" ?><!DOCTYPE svg  PUBLIC '-//W3C//DTD SVG 1.1//EN'  'http://www.w3.org/Graphics/SVG/1.1/DTD/svg11.dtd'><svg enable-background="new 0 0 512 512" height="512px" id="Layer_1" version="1.1" viewBox="0 0 512 512" width="512px" xml:space="preserve" xmlns="http://www.w3.org/2000/svg" xmlns:xlink="http://www.w3.org/1999/xlink"><g><path d="M445.788,154.561L259.027,87.858c-1.957-0.699-4.098-0.699-6.055,0L66.212,154.561c-3.614,1.291-6.013,4.733-5.972,8.571   c0.04,3.838,2.511,7.229,6.152,8.443l75.642,25.221v87.9c0,4.012,2.655,7.54,6.512,8.649l104.966,30.203   c0.813,0.233,1.65,0.351,2.488,0.351s1.676-0.117,2.488-0.351l33.051-9.51c4.777-1.375,7.535-6.361,6.161-11.138   c-1.375-4.777-6.358-7.537-11.138-6.161L256,305.533l-95.966-27.613v-75.123l93.119,31.048c1.848,0.616,3.846,0.617,5.693,0   l16.72-5.574c0.002,0,0.003-0.001,0.005-0.002l14.083-4.695c4.715-1.572,7.264-6.669,5.691-11.385   c-1.573-4.715-6.669-7.265-11.385-5.691L256,215.82l-83.686-27.903l-75.499-25.173L256,105.89l159.185,56.854l-57.064,19.027   c-0.001,0-0.001,0-0.001,0l-7.043,2.348l-5.806,1.936c0,0-0.001,0-0.001,0l-9.002,3.001c-4.716,1.572-7.264,6.669-5.691,11.385   c1.572,4.715,6.667,7.26,11.385,5.691l10.005-3.336v75.123l-11.218,3.228c-4.777,1.375-7.535,6.361-6.161,11.138   c1.136,3.946,4.734,6.514,8.646,6.514c0.823,0,1.661-0.113,2.492-0.353l17.729-5.102c3.856-1.109,6.512-4.638,6.512-8.649v-87.9   l75.642-25.221c3.642-1.214,6.112-4.604,6.152-8.443C451.801,159.293,449.402,155.852,445.788,154.561z"/><path d="M325.213,204.986c-0.006-0.208-0.012-0.417-0.032-0.625c-0.015-0.151-0.041-0.298-0.063-0.447   c-0.021-0.14-0.036-0.279-0.063-0.417c-0.032-0.166-0.076-0.328-0.117-0.49c-0.031-0.12-0.058-0.241-0.093-0.36   c-0.048-0.16-0.105-0.314-0.161-0.47c-0.044-0.121-0.084-0.242-0.133-0.361c-0.058-0.142-0.125-0.278-0.189-0.416   c-0.061-0.129-0.119-0.26-0.187-0.387c-0.064-0.122-0.137-0.238-0.206-0.355c-0.08-0.135-0.158-0.271-0.245-0.403   c-0.073-0.11-0.154-0.215-0.233-0.323c-0.094-0.128-0.185-0.258-0.285-0.382c-0.097-0.118-0.201-0.229-0.303-0.341   c-0.094-0.104-0.183-0.21-0.281-0.31c-0.16-0.162-0.33-0.313-0.502-0.462c-0.048-0.042-0.09-0.087-0.139-0.128l-0.022-0.019   c-0.005-0.004-0.011-0.009-0.017-0.014l-60.186-50.075c-3.819-3.179-9.494-2.659-12.675,1.162   c-3.179,3.821-2.658,9.496,1.163,12.675l56.98,47.408v159.556c-9.988,2.052-17.522,10.91-17.522,21.496v12.225   c0,12.1,9.844,21.943,21.943,21.943h12.226c12.1,0,21.943-9.844,21.943-21.943v-12.225c0-11.645-9.119-21.195-20.59-21.897V205.271   c0-0.002,0-0.005,0-0.008v-0.037C325.225,205.146,325.215,205.067,325.213,204.986z M327.814,390.498v12.225   c0,2.175-1.769,3.943-3.943,3.943h-12.226c-2.175,0-3.943-1.769-3.943-3.943v-12.225c0-2.175,1.769-3.943,3.943-3.943h12.226   C326.046,386.555,327.814,388.323,327.814,390.498z"/></g></svg>